<svg width="40" height="40" viewBox="0 0 40 40" fill="none" xmlns="http://www.w3.org/2000/svg">
<g clip-path="url(#clip0_2980_5773)">
<path d="M19.9999 23.1609C21.7454 23.1609 23.1604 21.7459 23.1604 20.0004C23.1604 18.2549 21.7454 16.8398 19.9999 16.8398C18.2544 16.8398 16.8394 18.2549 16.8394 20.0004C16.8394 21.7459 18.2544 23.1609 19.9999 23.1609Z" fill="#FFD100"/>
<path d="M24.0423 12.0117H15.9581C14.9112 12.0117 13.9072 12.4276 13.1669 13.1679C12.4266 13.9082 12.0107 14.9122 12.0107 15.9591V24.0407C12.0107 25.0876 12.4266 26.0916 13.1669 26.8319C13.9072 27.5722 14.9112 27.988 15.9581 27.988H24.0423C25.0892 27.988 26.0933 27.5722 26.8335 26.8319C27.5738 26.0916 27.9897 25.0876 27.9897 24.0407V15.9565C27.989 14.91 27.5728 13.9067 26.8326 13.1669C26.0924 12.4272 25.0888 12.0117 24.0423 12.0117ZM20.0002 25.1722C18.9768 25.1728 17.9763 24.8698 17.1252 24.3016C16.274 23.7334 15.6105 22.9256 15.2185 21.9803C14.8265 21.0349 14.7237 19.9946 14.923 18.9908C15.1223 17.9871 15.6149 17.065 16.3383 16.3411C17.0618 15.6173 17.9836 15.1243 18.9873 14.9245C19.991 14.7246 21.0313 14.8269 21.9769 15.2184C22.9224 15.61 23.7306 16.2731 24.2992 17.1239C24.8678 17.9748 25.1713 18.9752 25.1713 19.9986C25.1699 21.3698 24.6247 22.6846 23.6553 23.6544C22.6859 24.6243 21.3715 25.1702 20.0002 25.1722ZM25.2028 16.1038C24.9497 16.1043 24.702 16.0297 24.4913 15.8894C24.2806 15.749 24.1163 15.5493 24.0191 15.3155C23.922 15.0817 23.8965 14.8244 23.9457 14.576C23.995 14.3277 24.1168 14.0995 24.2959 13.9205C24.4749 13.7415 24.703 13.6196 24.9514 13.5704C25.1997 13.5211 25.4571 13.5467 25.6909 13.6438C25.9247 13.7409 26.1244 13.9052 26.2647 14.116C26.4051 14.3267 26.4797 14.5743 26.4792 14.8275C26.4785 15.1658 26.3438 15.49 26.1046 15.7292C25.8654 15.9684 25.5411 16.1031 25.2028 16.1038Z" fill="#FFD100"/>
<path d="M20 0C16.0444 0 12.1776 1.17298 8.8886 3.37061C5.59962 5.56824 3.03617 8.69181 1.52242 12.3463C0.00866564 16.0009 -0.387401 20.0222 0.384303 23.9018C1.15601 27.7814 3.06082 31.3451 5.85787 34.1421C8.65492 36.9392 12.2186 38.844 16.0982 39.6157C19.9778 40.3874 23.9992 39.9913 27.6537 38.4776C31.3082 36.9638 34.4318 34.4004 36.6294 31.1114C38.827 27.8224 40 23.9556 40 20C40 14.6957 37.8929 9.60859 34.1421 5.85786C30.3914 2.10714 25.3043 0 20 0ZM30 24.0421C29.9986 25.6218 29.3705 27.1364 28.2534 28.2534C27.1364 29.3705 25.6218 29.9986 24.0421 30H15.9579C14.3784 29.9979 12.8642 29.3695 11.7473 28.2527C10.6305 27.1358 10.0021 25.6216 10 24.0421V15.9579C10.0021 14.3784 10.6305 12.8642 11.7473 11.7473C12.8642 10.6305 14.3784 10.0021 15.9579 10H24.0421C25.6216 10.0021 27.1358 10.6305 28.2527 11.7473C29.3695 12.8642 29.9979 14.3784 30 15.9579V24.0421Z" fill="#FFD100"/>
</g>
<defs>
<clipPath id="clip0_2980_5773">
<rect width="40" height="40" fill="white"/>
</clipPath>
</defs>
</svg>
