<svg width="168" height="168" viewBox="0 0 168 168" fill="none" xmlns="http://www.w3.org/2000/svg">
<path fill-rule="evenodd" clip-rule="evenodd" d="M137.271 108.538L131.391 114.681C131.263 114.851 130.862 115.116 130.433 115.621L128.705 117.424C126.132 120.09 124.245 122.002 121.923 124.957L118.767 129.015C118.354 129.597 117.903 130.161 117.471 130.706C117.471 130.687 117.471 130.687 117.452 130.668C117.452 130.106 116.556 129.731 116.682 129.428C116.79 129.166 116.104 129.03 115.93 128.639C115.702 128.126 114.438 126.799 114.446 126.63C114.46 126.351 114.321 126.36 114.089 126.141C114.033 126.066 113.976 125.972 113.92 125.897C113.657 125.634 113.394 125.39 113.15 125.108L109.562 121.257C107.669 119.164 106.656 117.731 104.527 115.847C104.358 115.696 104.189 115.546 104.039 115.377C103.813 115.095 103.457 114.945 103.269 114.626L101.015 112.371C100.808 112.184 100.582 111.996 100.357 111.789L97.1445 108.633L95.1907 106.754L94.4394 106.172C93.9448 105.678 93.7086 105.861 93.4999 105.533C93.2019 105.533 93.26 105.257 92.88 105.195C92.6532 105.159 91.9516 104.374 91.6402 104.219C96.4803 100.655 101.766 95.8496 105.542 91.1435C106.932 89.4152 108.228 87.6495 109.524 85.9023L113.15 81.1307C113.263 81.206 113.357 81.2813 113.413 81.3938C113.747 82.0618 114.942 83.2906 114.935 83.4414C114.918 83.7845 115.15 83.7845 115.292 83.9488C115.348 84.024 115.404 84.1178 115.461 84.193C115.724 84.4561 115.987 84.7192 116.25 84.982L118.147 87.0296L120.383 89.4528C120.787 90.0008 121.326 90.5004 121.773 91.0122C122.711 92.085 123.436 92.9949 124.497 93.9616C127.236 96.4789 129.855 99.1232 132.518 101.72L134.491 103.636L135.242 104.219C135.814 104.79 135.877 104.455 136.2 104.857C136.219 104.876 136.219 104.876 136.238 104.876C136.477 104.891 136.482 105.173 136.82 105.215C137.037 105.241 137.709 106.059 138.323 106.36C138.805 106.597 138.737 106.705 138.924 106.83L137.271 108.538ZM83.938 103.203C93.0668 97.6082 99.3124 91.2964 105.767 82.7264C106.312 81.9936 106.838 81.2423 107.439 80.5471C108.435 79.3822 109.28 78.0862 110.313 76.8837C111.188 75.8713 112.219 74.609 113.169 73.6339C113.943 72.8383 114.4 71.8309 113.976 70.6845C113.277 68.7905 110.928 68.3147 109.581 69.6137C108.514 70.6422 106.93 70.5894 105.974 69.576C105.034 68.5805 105.072 67.0211 106.049 66.0632L108.059 64.0908C108.85 63.0778 108.863 61.8148 108.228 60.7281C107.466 59.4248 105.246 58.8348 103.757 60.2772C102.79 61.213 101.382 61.1613 100.526 60.2772C99.6615 59.3754 99.6615 57.9478 100.563 57.0836C101.303 56.3591 102.131 55.6892 102.329 54.6603C102.907 51.6551 99.3712 49.7339 97.1633 51.8423C96.3368 52.65 95.0029 52.6312 94.1763 51.7858C93.3874 50.9781 93.3874 49.6818 94.1763 48.8741C94.2052 48.8035 94.8846 48.1826 95.0781 47.1269C95.2602 46.1337 94.9279 46.0873 94.9279 45.2295C94.9279 44.8965 94.2566 44.122 94.0261 43.9332C93.5792 43.5669 92.8232 43.2911 92.2789 43.2195C91.0014 43.0515 90.2696 43.4413 89.3107 44.1402C88.4777 44.747 86.4984 47.2139 85.8542 47.4088C85.6278 47.4773 84.2149 48.6842 83.9945 48.9305C83.4687 49.4564 82.9048 49.9261 82.3226 50.3958C81.6385 50.9623 81.5679 50.9173 81.0263 51.2788C81.4419 51.6945 81.3028 53.8045 81.3455 54.078C81.4396 54.3825 81.1741 54.9691 81.2329 55.0924C81.2517 55.1112 81.2517 55.1301 81.2329 55.1489C81.0827 55.4869 81.0451 55.8629 80.9698 56.2385C80.8814 56.5718 79.9995 57.7683 79.7864 58.0983C79.392 58.7491 78.093 59.4762 77.4005 59.8078C76.8881 60.0531 75.7148 60.3213 75.1463 60.3901C74.5828 60.4466 74.0002 60.4278 73.4179 60.3713C73.7092 62.1138 73.2153 63.4266 72.1028 64.8048C71.915 65.0491 71.6707 65.2746 71.4264 65.4812C70.7988 66.1267 70.7648 65.955 70.6187 66.1011C70.3596 66.3602 70.0468 66.4502 69.6984 66.6458C68.9739 67.0523 67.4082 67.3033 66.5423 67.3033C66.5423 67.3974 66.5611 67.4912 66.5799 67.5852C66.5799 67.6793 66.5611 67.7731 66.5799 67.8671C66.6246 68.3201 66.7204 68.1716 66.674 68.5435V69.0697C66.5427 69.3704 66.6176 69.7272 66.5799 70.0653L66.0726 71.3615C65.3777 72.8339 65.2218 72.7244 64.0623 73.766C62.7284 74.826 60.5541 75.3697 58.8399 75.2313C58.9376 75.8159 58.8919 76.336 58.7458 76.922C58.4793 77.9905 58.2855 78.143 57.8816 78.9508C57.637 79.44 57.5751 79.2586 57.5436 79.4017C57.4122 79.6833 57.1867 79.8714 56.9801 80.0781C55.3918 81.7043 53.2495 82.4989 51.0063 82.1256C50.9687 82.2758 50.9499 82.4264 50.9687 82.5766C50.9966 83.0234 50.8279 83.5187 50.7056 83.9854C50.5322 84.6473 50.7419 84.4128 50.5927 84.7367C50.454 85.0381 50.5353 85.0962 50.5175 85.15C50.3673 85.3566 50.3861 85.6385 50.3485 85.9201L50.0289 86.5024C49.5135 87.6491 49.0055 88.3944 48.0002 89.3389L44.9755 92.4008C44.7877 92.5887 44.6375 92.8141 44.4496 93.002L42.4209 95.0307C42.1202 95.2185 41.9888 95.5381 41.7257 95.7447C41.3894 96.0236 41.1495 96.4191 40.9368 96.6466C39.7386 97.9267 38.8623 98.5224 37.6493 99.6336L35.7519 101.306L31.9383 104.837C31.7636 104.989 31.7905 105.17 31.4686 105.138C31.3732 105.129 31.2724 105.308 31.0177 105.439C30.9236 105.495 30.886 105.589 30.8111 105.645L29.6277 106.472C29.4173 106.559 29.2534 106.932 29.1015 107.111C28.9926 107.239 28.911 107.055 28.7635 107.148C28.2944 107.443 28.2763 107.825 27.7679 107.825C28.3126 108.276 28.8764 108.708 29.4399 109.121C31.4898 110.636 33.5417 112.314 35.5077 113.93C37.397 115.484 39.2642 117.354 41.0308 119.058L42.8342 120.787C43.3701 121.227 43.6123 121.625 43.7736 121.745L48.3385 126.103L52.1333 129.766C52.7838 128.466 53.5005 128.193 54.5565 126.479C54.8751 125.975 56.1787 124.703 56.6229 124.281C57.1676 123.755 57.6749 123.191 58.1635 122.609C58.8587 121.801 59.5535 121.031 60.324 120.261L63.4048 117.01C63.9447 116.221 64.9067 115.469 65.1896 114.982C65.2084 114.944 65.246 114.906 65.2837 114.869C66.035 114.193 66.5988 113.404 67.2187 112.671L70.1869 109.628C73.6054 106.466 78.3154 106.007 82.4163 104.068L83.938 103.203ZM47.7377 74.3667C47.5476 74.0818 47.0392 73.8379 46.6669 72.9391C46.4861 72.5026 46.4142 72.4354 46.4603 71.8306C46.5144 70.4103 47.3759 70.0152 48.1322 69.2568C48.2421 69.1466 48.2632 69.3462 48.5831 68.9561C48.6207 68.8997 48.6957 68.862 48.7709 68.8809C49.0317 68.6201 48.9494 68.9081 49.1466 68.6554C49.1842 68.6178 49.2219 68.6178 49.2407 68.5989H49.4661L51.3259 70.3838C51.4761 70.5152 51.6454 70.6657 51.7956 70.8347C52.0211 71.1166 52.3779 71.2668 52.5657 71.5863L54.5007 73.5025C54.8908 73.8473 55.1966 73.9988 55.5904 74.2353C55.5652 74.4625 55.5158 75.3841 55.3649 75.4376C55.0568 75.5468 55.3229 75.5202 55.1207 75.8885C55.0095 76.0907 54.8787 76.6186 54.4631 76.9405C54.3882 76.9969 54.3129 77.1095 54.2188 77.1659C53.7118 77.4445 53.5804 77.758 52.5657 77.8423C51.0786 77.9656 50.2524 76.6801 49.3532 75.87C49.0579 75.6035 48.7108 75.3814 48.4514 75.0622C48.2448 74.8176 47.9067 74.6674 47.7377 74.3667ZM51.1942 61.7241C51.2977 61.3098 51.2268 60.9953 51.7576 60.2211C51.9505 59.9859 51.8618 59.9832 51.9267 59.9769C52.0671 59.9631 52.0802 59.7847 52.1897 59.695C53.2283 58.8435 53.3543 59.0656 54.1248 58.6429C54.2188 58.5865 54.3314 58.5304 54.4443 58.4927C55.6317 59.5915 58.8425 62.6487 60.1177 63.6403C60.6553 64.0203 61.845 65.5481 63.0483 66.2701C63.0059 66.4398 63.0724 66.7365 62.8228 67.0779L62.3531 68.2613L61.6767 69.3133C61.1488 69.6123 61.374 69.7558 60.1361 70.0646C58.5956 70.449 57.6027 69.5754 56.548 68.6181L53.6739 65.9318L52.9787 65.3871L52.0957 64.5982C51.431 64.033 51.0242 62.5721 51.1942 61.7241ZM55.3834 51.0349C55.4022 50.9408 55.3834 50.8471 55.4211 50.7533C55.8861 49.4846 55.628 50.2389 56.1535 49.3068C56.4637 48.7565 56.6323 48.8472 56.7358 48.7057C56.8299 48.5744 56.9048 48.3489 57.0738 48.3489C57.1128 48.3489 57.0765 48.2357 57.2993 48.1799C57.599 48.105 57.2459 48.0694 57.769 47.9168C58.0425 47.8372 58.7018 47.8691 59.0089 47.7666C59.3942 48.6147 60.0663 49.2816 60.6808 49.9647C62.0964 51.5379 62.6434 52.3077 64.2878 53.7031C64.4756 53.8721 64.6634 54.0414 64.8136 54.2289C65.0955 54.5296 65.4711 54.7363 65.6966 55.0743L68.5896 57.9484C69.2401 58.5126 69.7575 58.9873 70.5434 59.4325C70.4987 59.6499 70.2565 61.2473 70.0172 61.2735C69.7679 61.301 69.8119 61.5124 69.7541 61.6115L69.153 62.3443C68.4051 63.0536 66.8514 63.3668 65.9594 62.889C65.3005 62.5362 64.9631 62.1182 64.4 61.4989C63.1847 60.1066 62.6887 59.5004 61.3568 58.2488L59.3842 56.389L56.4912 53.5337C55.7255 52.9182 55.3095 52.0315 55.3834 51.0349ZM62.2966 43.032L62.6346 42.0365C62.8601 41.888 62.77 41.7885 62.8789 41.6796C63.2105 41.348 63.4007 41.0039 63.9497 40.7029C64.6318 40.3286 65.3613 39.8649 66.1475 39.7073C66.6603 40.2157 68.6998 42.3254 69.2098 42.6567C69.3573 42.7679 69.2048 42.7894 69.7168 43.1641L72.5722 45.8316C74.3079 47.3137 76.2991 48.3953 78.2079 49.5887C78.0994 49.8051 78.0648 49.7903 78.0765 50.2463L77.8323 52.2374C77.7247 52.5314 77.637 52.5217 77.5692 52.7072L77.043 53.8156C76.922 54.0112 76.3502 54.7561 76.1227 54.8676C75.9725 54.8865 75.8596 54.9994 75.7282 55.0555C74.8456 55.5067 73.348 55.3915 72.6098 54.7174L69.7357 52.1813C69.3976 51.8621 69.0593 51.5426 68.7401 51.2046C68.6087 51.0917 68.477 50.9979 68.3456 50.9038L67.012 49.6076C66.4422 49.1758 66.6744 49.2507 66.3357 48.9876C66.1479 48.8186 65.9412 48.6684 65.7534 48.5179C65.4903 48.2736 65.2652 48.0106 64.9645 47.8227L63.0106 45.8689C62.5305 45.2258 62.3564 44.6351 62.2405 43.8966L62.2966 43.032ZM80.8193 50.7153L81.0636 50.584C80.9883 50.6592 80.9134 50.7342 80.8381 50.8094C80.8384 50.7718 80.8193 50.7342 80.8193 50.7153ZM80.8384 50.5087C80.8196 50.5463 80.8008 50.5836 80.782 50.6213L80.6879 50.3394C80.7632 50.3017 80.8193 50.2829 80.8757 50.2829C80.8757 50.3585 80.8569 50.4338 80.8384 50.5087ZM70.788 28.1724L75.3153 32.6436C75.4843 32.8126 75.6909 32.9631 75.8599 33.151L78.9031 36.1568C79.2223 36.4011 79.5042 36.6642 79.8237 36.8896L80.5189 37.5472C80.8384 37.735 81.1953 37.8852 81.4207 38.1859C81.4396 38.2047 81.4584 38.2047 81.4772 38.2235C81.665 38.28 81.7779 38.4302 81.9093 38.5427C82.252 38.8599 82.2207 38.6916 82.8111 39.2003C83.5295 39.8199 83.7274 40.1139 84.5395 40.6656C85.1547 41.0836 85.7246 41.8631 86.08 41.9431C86.792 42.103 87.0252 42.5297 87.3387 42.5818L82.1915 48.3677C81.6469 48.95 81.0831 49.5138 80.5948 50.0961C80.3139 49.7215 80.3119 49.3129 80.0687 49.0253C79.6977 48.5865 79.267 48.2925 79.0167 47.9168C78.8466 47.6618 79.0442 47.6124 78.8288 47.4286C77.5372 46.3255 78.224 47.0711 77.0067 45.4936C76.6909 45.0978 75.2911 43.6315 75.2783 43.4648C75.2511 43.1093 74.8462 42.8983 74.6772 42.7135L69.9994 37.7918C68.5664 36.2848 68.1054 34.967 67.6887 33.114C67.4179 31.9094 67.5389 30.1081 67.9142 28.8683L68.1958 27.8351L68.8157 26.2945L70.788 28.1724ZM157.466 113.892C157.281 112.673 156.667 111.343 155.718 110.511C154.574 109.506 153.336 108.182 152.337 107.336L149.275 104.292C147.074 102.091 143.686 102.01 141.497 104.198L140.934 104.762C140.693 104.038 140.449 103.906 140.333 103.372C140.219 102.849 138.88 101.218 138.416 100.704L137.609 99.8587C137.442 99.5503 136.898 99.0805 136.669 98.8255C136.594 98.7318 136.519 98.6189 136.444 98.5248C135.128 97.0101 132.957 95.0815 131.466 93.6968C131.071 93.3588 130.658 93.0204 130.263 92.6824C129.963 92.4005 129.662 92.1001 129.362 91.7994C129.249 91.7053 129.117 91.6304 129.024 91.5175L127.352 89.9397L125.567 88.3991C124.09 86.9489 122.964 85.8025 121.415 84.4729L119.781 83.0265C119.662 82.972 119.753 82.8746 119.462 82.6881C119.035 82.4146 117.683 80.9553 116.776 80.4715L114.578 79.3446C115.557 78.1763 116.32 77.4374 117.227 76.414C118.726 74.7199 119.344 71.9163 118.767 69.8015C117.999 66.9892 115.709 64.8082 112.868 64.3348C114.049 59.9674 111.03 55.4392 106.387 55.1862C106.839 52.2475 105.438 49.3838 102.856 47.935L101.935 47.5405C100.762 47.012 100.035 47.0466 98.8353 47.0896C99.1437 42.7632 95.1043 39.1549 90.6258 40.3642C89.8295 40.5792 89.0184 40.9703 88.3904 41.5288C88.0446 40.378 87.928 40.4122 87.4886 39.4812C87.0514 38.5555 86.6539 38.2709 86.2864 37.4336C85.9641 36.6991 83.8315 34.2591 83.1115 33.4886L81.834 32.2112L80.3687 30.6141C80.2373 30.4828 80.1244 30.3134 79.9743 30.1632L77.6636 27.7588L72.3286 22.6677L70.0367 20.5637C69.1161 19.756 67.726 19.8312 66.8995 20.7515L65.6973 22.1604C65.1167 22.9954 64.1184 24.6465 63.8187 25.5607C63.725 25.9364 63.6121 26.312 63.4619 26.6692C63.096 27.4998 62.978 29.8541 62.9548 30.8961C62.9421 32.8576 63.4599 35.1834 64.3261 36.9639L63.2364 37.1705C63.0422 37.2327 62.8682 37.0062 62.4287 37.3019C61.84 37.6977 61.5567 37.5693 60.3623 38.7107C58.8674 40.1391 58.0704 42.0076 58.0704 44.0649C52.7744 43.2024 48.1191 49.9667 51.3074 55.1674C51.4015 55.3175 51.4952 55.4681 51.6081 55.6183C51.5147 55.7117 46.2741 57.4942 46.9303 63.7149L47.0993 64.6731C46.0759 64.9288 46.0621 64.9557 45.1267 65.4997C44.7621 65.7117 44.699 65.6364 44.1499 66.1008C42.3248 67.6444 41.3403 69.4655 41.3695 71.9243C41.3967 74.2199 42.1716 75.8142 43.7928 77.3534C44.0935 77.635 44.3562 77.8793 44.6193 78.1612C44.7134 78.2553 44.8448 78.3302 44.9389 78.4054C45.3679 78.7798 46.4361 79.8711 46.8551 80.1526C47.2119 80.3926 47.7996 80.9866 48.2827 81.1482C47.939 81.4536 47.7253 81.9657 47.4185 82.1438C47.1276 82.3125 45.7238 84.5411 45.5211 84.7364C45.1902 84.9541 45.0897 85.1735 44.8071 85.4315C43.5075 86.6193 43.4107 86.6613 42.1208 88.0429L40.2987 90.0341C40.0171 90.3909 39.7164 90.7665 39.3969 91.1049L36.9736 93.7348L35.8464 95.0872L33.4231 97.5668L31.2438 100.028C31.1125 100.197 30.9058 100.309 30.8306 100.535C30.7738 100.627 30.719 100.518 30.5298 100.817C30.3608 101.084 28.95 102.455 28.5572 103.24L27.5052 105.569C27.3812 105.941 26.8043 107.045 26.9978 107.148C27.0489 107.174 27.2569 107.043 27.2985 107.298L27.4487 107.41C27.4299 107.448 27.4111 107.504 27.3923 107.542C27.278 107.427 25.5268 106.005 25.4949 106.264C25.5325 106.433 25.758 106.565 25.7391 106.734C25.6827 106.734 25.6074 106.734 25.5513 106.753C25.4509 106.753 25.2808 106.549 25.4761 106.941L24.4993 106.264C24.9136 107.925 27.5976 109.739 27.6742 110.341C27.7256 110.747 29.2433 111.757 29.8911 112.595C30.5208 113.41 32.184 115.183 32.9531 116.014C33.1597 116.24 33.404 116.428 33.5918 116.653L34.7379 117.968C35.0692 118.665 35.5386 118.873 35.9213 119.302L51.1754 134.969C51.1754 134.991 51.4872 135.403 51.382 135.796C51.2772 136.188 51.0467 136.359 50.7244 136.66L44.3747 142.784C44.1231 143.036 43.5687 143.093 43.1913 142.671C42.1756 141.61 41.1411 140.755 40.0729 139.572L36.2593 135.739L23.2407 122.871C22.9026 122.533 22.5643 122.232 22.2451 121.894C21.6252 121.237 20.9864 120.579 20.3289 119.94C19.0702 118.738 17.8868 117.442 16.5717 116.296L15.2943 115.15L15.1064 114.624C14.9283 114.226 15.0103 113.98 15.219 113.61C15.306 113.488 15.7354 113.176 16.0455 112.633L18.1684 110.341C19.1115 109.398 19.9233 108.21 20.7233 107.467L21.9067 106.283C22.3408 105.532 23.1647 105.842 23.4849 105.682C23.7756 105.537 24.0494 105.81 24.1613 105.776C24.3679 105.72 24.5934 105.833 24.8188 105.945C24.5393 105.449 24.5991 105.337 24.4808 105.138L23.8797 104.33C23.5417 104.123 23.1661 103.935 22.734 103.86C21.264 103.606 20.3427 104.156 19.2399 104.931C17.9691 105.807 16.7935 106.905 15.7831 107.561C15.1827 107.941 12.5505 110.16 11.9131 110.886C10.0651 112.99 9.94177 116.385 11.9131 118.475L14.0924 120.673L16.854 123.566C17.1171 123.829 17.361 124.13 17.6241 124.393L21.9635 128.826L31.8073 138.445C32.9158 139.478 34.0239 140.511 35.1135 141.563C35.9966 142.408 36.8419 143.254 37.7061 144.118C38.0068 144.419 38.3449 144.7 38.6456 144.982C39.9724 146.267 40.76 147.368 42.7972 147.763C44.5447 148.101 46.5268 147.508 47.7942 146.241L49.2783 144.625C49.8982 143.987 50.5558 143.367 51.1381 142.69C51.4381 142.295 53.7992 140.06 54.5196 139.234C56.3884 137.089 56.2658 133.854 54.2753 131.851L52.9417 130.535C53.1423 130.469 53.1208 130.539 53.2985 130.423C53.7118 130.16 54.1439 129.916 54.5572 129.615C56.1905 128.409 58.652 126.486 60.1553 125.182C60.9818 124.468 61.7896 123.735 62.635 123.115C64.1097 122.102 70.5894 115.901 72.4599 114.06C73.3517 113.183 74.5096 112.264 75.6724 111.825C82.0803 109.405 82.4731 110.225 88.9538 106.076C89.3245 106.632 89.3265 106.978 89.48 107.279C89.9837 108.267 91.2118 109.66 92.0162 110.435L92.542 111.092C92.6922 111.242 92.8427 111.374 92.9741 111.524C94.7408 113.568 96.1412 114.765 98.1025 116.578C98.7241 117.153 99.5073 117.716 100.188 118.437C100.282 118.55 100.413 118.625 100.526 118.719L102.311 120.41C102.498 120.56 102.686 120.673 102.855 120.823C104.381 122.198 105.943 123.865 107.439 125.163L109.637 127.079C109.747 127.151 109.584 127.169 109.956 127.417C110.721 128.007 111.686 129.121 112.605 129.596C113.287 129.962 113.299 130.026 114.089 130.367C114.499 130.543 116.4 131.475 116.681 131.493C116.939 131.511 116.602 131.209 116.907 131.137C116.96 131.124 117.081 131.085 117.019 131.024C117.019 131.005 117.019 131.005 117.019 130.986C117.095 131.005 117.132 131.024 117.188 131.062C117.118 131.132 115.658 132.928 115.911 132.959C116.08 132.921 116.212 132.715 116.381 132.715C116.381 133.361 116.376 132.997 116.587 132.997C116.408 133.235 115.979 133.702 115.93 133.973C116.53 133.673 117.1 133.417 117.602 132.959C117.996 132.602 118.372 132.264 118.71 131.869C118.808 131.747 119.769 130.808 119.987 130.78C120.439 130.723 121.398 129.215 122.242 128.563C123.142 127.868 124.771 126.324 125.661 125.501C125.886 125.295 126.074 125.05 126.3 124.862L127.615 123.716C128.236 123.438 128.468 123.022 128.948 122.533C129.155 122.345 129.38 122.157 129.587 121.97L131.86 119.696L140.934 110.829L144.672 107.26C145.055 106.984 145.595 107.019 145.855 107.279C148.055 109.526 150.174 111.841 152.412 114.08H152.431C152.431 114.098 152.449 114.098 152.449 114.117C152.659 114.327 152.666 114.877 152.525 115.019C152.525 115.136 151.495 116.107 151.473 116.127C150.703 116.86 150.045 117.706 149.218 118.401C148.749 118.814 148.317 119.302 147.866 119.753L142.644 124.976C142.043 125.596 141.46 126.216 140.859 126.835L137.759 129.935L132.518 135.214C132.18 135.552 131.879 135.909 131.541 136.228C130.884 136.848 130.226 137.468 129.606 138.126C128.187 139.621 126.136 141.528 124.797 143.16L124.271 143.348C124.064 143.461 123.745 143.536 123.538 143.348C123.52 143.348 123.501 143.348 123.482 143.329C123.179 143.329 122.898 142.743 122.298 142.409C121.969 142.225 120.177 140.482 119.988 140.286C119.057 139.319 117.873 138.569 117.114 137.731L115.93 136.566C115.259 136.213 115.457 135.254 115.329 134.97C115.192 134.664 115.456 134.403 115.423 134.293C115.367 134.087 115.48 133.88 115.592 133.636C115.159 133.88 114.884 133.91 114.785 133.993C114.361 134.346 114.09 134.431 113.977 134.575C113.183 135.715 113.379 137.419 114.127 138.576C115.025 139.966 116.557 141.646 117.208 142.69C117.578 143.284 119.784 145.883 120.533 146.541C122.801 148.534 126.198 148.484 128.348 146.335L130.32 144.381C130.903 143.911 131.41 143.385 131.917 142.878C134.075 140.736 136.308 138.673 138.474 136.491L148.092 126.647C149.125 125.539 150.158 124.43 151.21 123.341L154.648 119.809C155.913 118.506 157.044 117.645 157.429 115.657C157.541 115.076 157.541 114.475 157.466 113.892Z" fill="#FFD100"/>
</svg>
